<svg width="16" height="17" viewBox="0 0 16 17" fill="none" xmlns="http://www.w3.org/2000/svg">
<path d="M12.8 11.664C12.7467 11.6 12.7147 11.5253 12.704 11.44C12.704 11.3547 12.7253 11.2747 12.768 11.2C13.504 10.0587 13.872 8.80533 13.872 7.44C13.872 6.18133 13.5573 5.01333 12.928 3.936C12.3093 2.89067 11.4773 2.05867 10.432 1.44C9.36533 0.810666 8.20267 0.495999 6.944 0.495999C5.68533 0.495999 4.51733 0.810666 3.44 1.44C2.39467 2.05867 1.56267 2.89067 0.944 3.936C0.314667 5.01333 0 6.18133 0 7.44C0 8.69867 0.314667 9.86667 0.944 10.944C1.56267 11.9893 2.39467 12.8213 3.44 13.44C4.51733 14.0693 5.68533 14.384 6.944 14.384C7.66933 14.384 8.37867 14.272 9.072 14.048C9.744 13.824 10.368 13.5093 10.944 13.104C11.008 13.0507 11.0827 13.0293 11.168 13.04C11.264 13.04 11.3387 13.072 11.392 13.136L13.92 15.664C13.9307 15.6747 13.9733 15.712 14.048 15.776L14.192 15.904L14.48 16.208C14.5333 16.2613 14.6027 16.288 14.688 16.288C14.7733 16.288 14.8427 16.2613 14.896 16.208L15.92 15.184C15.9733 15.1307 16 15.0613 16 14.976C16 14.8907 15.9733 14.8213 15.92 14.768L12.8 11.664ZM11.136 10.672C10.912 10.9707 10.656 11.2427 10.368 11.488C9.89867 11.8933 9.37067 12.208 8.784 12.432C8.19733 12.6453 7.584 12.752 6.944 12.752C5.984 12.752 5.09333 12.512 4.272 12.032C3.46133 11.5627 2.82133 10.9227 2.352 10.112C1.872 9.29067 1.632 8.4 1.632 7.44C1.632 6.48 1.872 5.58933 2.352 4.768C2.82133 3.95733 3.46133 3.31733 4.272 2.848C5.09333 2.368 5.984 2.128 6.944 2.128C7.904 2.128 8.79467 2.368 9.616 2.848C10.416 3.31733 11.0507 3.95733 11.52 4.768C12 5.58933 12.24 6.48 12.24 7.44C12.24 8.03733 12.144 8.61333 11.952 9.168C11.76 9.712 11.488 10.2133 11.136 10.672Z" fill="#F29C52"/>
</svg>
