<svg width="14" height="14" viewBox="0 0 14 14" fill="none" xmlns="http://www.w3.org/2000/svg">
<path d="M12.194 0.822003H1.82C1.568 0.822003 1.35333 0.91067 1.176 1.088C0.998667 1.256 0.91 1.46134 0.91 1.704V12.204C0.91 12.4467 0.998667 12.652 1.176 12.82C1.35333 12.9973 1.568 13.086 1.82 13.086H12.194C12.4367 13.086 12.6467 12.9973 12.824 12.82C13.0013 12.652 13.09 12.4467 13.09 12.204V1.704C13.09 1.46134 13.0013 1.256 12.824 1.088C12.6467 0.91067 12.4367 0.822003 12.194 0.822003ZM4.606 11.084H2.772V5.554H4.606V11.084ZM3.682 4.798H3.668C3.36933 4.798 3.12667 4.70934 2.94 4.532C2.75333 4.34534 2.66 4.11667 2.66 3.846C2.66 3.566 2.75333 3.33734 2.94 3.16C3.136 2.97334 3.388 2.88 3.696 2.88C4.004 2.88 4.25133 2.97334 4.438 3.16C4.62467 3.33734 4.718 3.566 4.718 3.846C4.718 4.11667 4.62467 4.34534 4.438 4.532C4.25133 4.70934 3.99933 4.798 3.682 4.798ZM11.228 11.084H9.394V8.116C9.394 7.724 9.324 7.42534 9.184 7.22C9.02533 6.98667 8.78733 6.87 8.47 6.87C8.23667 6.87 8.03133 6.94 7.854 7.08C7.714 7.20134 7.602 7.35534 7.518 7.542C7.48067 7.654 7.462 7.80334 7.462 7.99V11.084H5.628V8.508C5.63733 6.75334 5.63733 5.76867 5.628 5.554H7.462V6.338C7.84467 5.73134 8.39533 5.428 9.114 5.428C9.74867 5.428 10.2527 5.62867 10.626 6.03C11.0273 6.46867 11.228 7.094 11.228 7.906V11.084Z" fill="#181818"/>
</svg>
